<?xml version="1.0" encoding="iso-8859-1"?>
<!-- Generator: Adobe Illustrator 24.1.1, SVG Export Plug-In . SVG Version: 6.00 Build 0)  -->
<svg version="1.1" id="Layer_1" xmlns="http://www.w3.org/2000/svg" xmlns:xlink="http://www.w3.org/1999/xlink" x="0px" y="0px"
	 width="500px" height="500px" viewBox="0 0 500 500" style="enable-background:new 0 0 500 500;" xml:space="preserve">
<g>
	<path style="fill:#03234B;" d="M479.943,445.922L319.539,285.095c21.317-28.462,33.943-63.809,33.943-102.104
		c0-94.159-76.332-170.491-170.491-170.491S12.5,88.832,12.5,182.991s76.332,170.491,170.491,170.491
		c38.295,0,73.643-12.627,102.104-33.943l160.404,160.827c9.511,9.513,24.933,9.513,34.444,0
		C489.455,470.855,489.455,455.433,479.943,445.922z M182.991,304.77c-67.256,0-121.779-54.523-121.779-121.779
		S115.734,61.212,182.991,61.212S304.77,115.734,304.77,182.991S250.247,304.77,182.991,304.77z"/>
	<path style="fill:#03234B;" d="M183.027,80.139c-56.667,0.02-102.792,46.148-102.818,102.831c0,0.836,0.012,1.67,0.032,2.499
		l0.008,0.272c0.022,0.822,0.052,1.644,0.094,2.472c2.773,54.667,47.861,97.489,102.648,97.489
		c56.675,0,102.783-46.108,102.783-102.782C285.773,126.266,239.682,80.158,183.027,80.139z M114.533,139.913
		c-4.422,13.009-6.749,26.916-6.922,41.378H89.772c0.267-14.395,3.907-28.666,10.557-41.378H114.533z M255.625,241.779
		c-7.366,9.987-18.191,17.441-25.127,21.558c7.35-8.112,13.145-18.955,14.487-21.558H255.625z M152.245,241.779
		c2.989,12.618,6.948,23.061,11.543,30.486c-12.401-5.406-23.584-16.092-31.857-30.486H152.245z M149.204,139.913
		c-2.043,13.021-3.162,27.278-3.246,41.378h-28.785c0.189-14.395,2.763-28.664,7.464-41.378H149.204z M128.703,130.363
		c8.512-17.56,20.847-30.404,35.076-36.581c-5.32,8.596-9.737,21.139-12.864,36.581H128.703z M146.062,190.84
		c0.385,14.405,1.825,28.667,4.181,41.397h-23.129c-5.497-12.477-8.845-26.753-9.712-41.397H146.062z M155.4,190.732h55.142
		c-0.046,3.595-0.38,15.618-2.709,31.85l-0.006,0.251c-0.181,1.209-0.372,2.396-0.568,3.58c-0.317,2.02-0.659,4.053-1.018,6.056
		h-46.516c-0.209-1.366-0.649-4.296-1.169-8.079c-0.8-5.103-1.453-10.462-1.942-15.944
		C155.861,201.211,155.454,195.26,155.4,190.732z M155.508,181.291c0.082-14.612,1.201-28.522,3.329-41.378h48.473
		c2.128,12.855,3.248,26.765,3.33,41.378H155.508z M136.368,102.257c-7.207,7.774-13.397,17.364-18.112,28.106h-12.173
		C113.994,118.834,124.353,109.232,136.368,102.257z M121.151,241.779c4.282,8.361,9.382,15.735,15.21,22.001
		c-9.768-5.686-18.543-13.187-25.712-22.001H121.151z M212.487,247.314l0.036,0.195l1.11-4.597c0.109-0.451,0.198-0.833,0.268-1.134
		h20.328c-11.396,20.33-25.967,28.144-31.967,30.635C206.237,266.066,209.665,257.651,212.487,247.314z M215.236,130.363
		c-3.131-15.442-7.552-27.984-12.877-36.581c14.235,6.179,26.576,19.022,35.094,36.581H215.236z M247.883,130.363
		c-4.717-10.748-10.91-20.341-18.121-28.116c12.023,6.975,22.392,16.58,30.309,28.116H247.883z M244.636,216.366l-0.08-0.053
		l-0.366,1.337c-2.058,7.521-4.186,13.043-4.899,14.818h-23.456c2.13-9.04,3.792-36.197,4.114-41.736h28.818
		c-0.099,1.832-0.251,3.714-0.455,5.607C247.616,203.214,246.379,209.943,244.636,216.366z M241.522,139.913
		c4.705,12.716,7.281,26.985,7.47,41.378h-28.791c-0.084-14.097-1.204-28.354-3.251-41.378H241.522z M160.651,130.363
		c5.28-24.376,14.231-40.663,22.414-40.663c8.189,0,17.147,16.287,22.431,40.663H160.651z M107.824,190.84
		c0.809,14.635,3.832,28.548,8.993,41.397h-12.983c-7.776-12.475-12.513-26.753-13.739-41.397H107.824z M204.064,241.779
		c-5.38,21.045-13.57,34.566-21,34.566c-7.423,0-15.606-13.521-20.983-34.566H204.064z M276.06,190.84
		c-0.423,5.058-1.262,10.098-2.497,14.997l-0.001,0.006c-3.687,14.998-9.816,24.398-11.202,26.395h-13.014
		c6.671-16.549,8.628-37.247,8.96-41.351L276.06,190.84z M276.383,181.291h-17.857c-0.173-14.462-2.5-28.369-6.921-41.378h14.22
		C272.476,152.625,276.116,166.896,276.383,181.291z"/>
	<polygon style="fill:#03234B;" points="120.418,395.506 133.243,395.506 115.552,461.553 93.438,382.237 80.465,382.237 
		58.792,461.996 40.364,395.506 52.896,395.506 52.896,382.237 12.5,382.237 12.5,395.506 23.999,395.506 50.389,487.5 
		65.574,487.5 86.951,411.428 108.033,487.5 123.807,487.5 148.428,395.506 161.106,395.506 161.106,382.237 120.418,382.237 	"/>
	<polygon style="fill:#03234B;" points="188.969,409.364 163.169,409.364 163.169,422.631 174.669,422.631 174.669,474.231 
		163.169,474.231 163.169,487.5 200.321,487.5 200.321,474.231 188.969,474.231 	"/>
	<rect x="174.669" y="382.237" style="fill:#03234B;" width="14.3" height="17.396"/>
	<polygon style="fill:#03234B;" points="253.246,446.221 278.161,422.631 289.07,422.631 289.07,409.364 251.181,409.364 
		251.181,421.599 261.207,421.599 237.176,444.304 237.176,382.237 211.524,382.237 211.524,395.506 222.875,395.506 
		222.875,474.231 211.524,474.231 211.524,487.5 246.463,487.5 246.463,474.231 237.176,474.231 237.176,448.727 261.502,474.231 
		252.95,474.231 252.95,487.5 293.64,487.5 293.64,474.231 280.372,474.231 	"/>
	<rect x="311.772" y="382.237" style="fill:#03234B;" width="14.3" height="17.396"/>
	<polygon style="fill:#03234B;" points="326.072,409.364 300.272,409.364 300.272,422.631 311.772,422.631 311.772,474.231 
		300.272,474.231 300.272,487.5 337.424,487.5 337.424,474.231 326.072,474.231 	"/>
</g>
</svg>
